<?xml version="1.0" encoding="UTF-8"?>
<svg id="_레이어_1" data-name="레이어 1" xmlns="http://www.w3.org/2000/svg" version="1.1" viewBox="0 0 701.51 69.6">
  <defs>
    <style>
      .cls-1 {
        fill: #79868c;
        stroke-width: 0px;
      }
    </style>
  </defs>
  <path class="cls-1" d="M27.86,30.3c-9.72-1.46-18.71-3.98-18.71-12.46,0-10.63,12.72-11.78,18.19-11.78,1.73,0,3.46.11,5.17.32,1.73.21,3.46.52,5.15.93,1.66.39,3.29.88,4.89,1.45,1.77.64,3.5,1.4,5.22,2.36.74.42,1.56.75,2.42.62.69-.1,1.34-.45,1.81-.96.41-.44.68-1,.77-1.59.11-.7-.04-1.39-.4-1.99-.18-.28-.41-.53-.67-.74-.6-.5-1.33-.87-2.02-1.24-.69-.37-1.39-.71-2.1-1.04-1.51-.68-3.06-1.27-4.64-1.77-1.67-.53-3.36-.97-5.07-1.32-1.77-.36-3.55-.64-5.34-.82-1.73-.18-3.46-.27-5.2-.27C11.94,0,1.99,7.04,1.99,17.93c0,13.55,12.96,17.39,25.63,19.36,12.17,1.89,20.14,3.89,20.14,14.09s-12.29,12.07-19.61,12.07c-11.57,0-19.12-3.31-23.39-5.92-.68-.42-1.46-.67-2.26-.52-.69.13-1.33.51-1.79,1.05-.28.33-.49.73-.61,1.15-.38,1.37.27,2.78,1.48,3.49,6.83,4.45,15.93,6.91,25.96,6.91,17.47,0,27.49-6.92,27.49-18.99,0-14.95-14.02-18.33-27.17-20.32Z"/>
  <path class="cls-1" d="M104.07,8.79c-1.66-.59-3.52.13-4.36,1.69-1.08,2-.22,4.29,1.93,5.04,9.93,3.49,16.9,13.28,16.07,24.58-.84,11.51-11.73,21.94-23.27,22.32-13.71.45-24.97-10.53-24.97-24.14,0-11.73,8.37-21.46,19.45-23.65,2.23-.44,4.4-1.52,5.99-3.16,3.68-3.81,2.7-10.57-3.06-11.39-.39-.06-.78-.08-1.18-.08h-5.36s0,1.86,0,1.86c0-.05,1.2.22,1.31.25,1.19.35,2.32,1.23,2.73,2.44.44,1.27-.14,2.71-1.56,2.98-15.22,2.87-26.56,16.73-25.41,33.04,1.06,14.89,14.99,28.39,29.9,29.01,17.91.74,32.66-13.55,32.66-31.29,0-13.63-8.72-25.2-20.87-29.5Z"/>
  <path class="cls-1" d="M173.99,8.79c-1.66-.59-3.52.13-4.36,1.69-1.08,2-.22,4.29,1.93,5.04,9.93,3.49,16.9,13.28,16.07,24.58-.84,11.51-11.73,21.94-23.27,22.32-13.71.45-24.97-10.53-24.97-24.14,0-11.73,8.37-21.46,19.45-23.65,2.23-.44,4.4-1.52,5.99-3.16,3.68-3.81,2.7-10.57-3.06-11.39-.39-.06-.78-.08-1.18-.08h-5.36s0,1.86,0,1.86c0-.05,1.2.22,1.31.25,1.19.35,2.32,1.23,2.73,2.44.44,1.27-.14,2.71-1.56,2.98-15.22,2.87-26.56,16.73-25.41,33.04,1.06,14.89,14.99,28.39,29.9,29.01,17.91.74,32.66-13.55,32.66-31.29,0-13.63-8.72-25.2-20.87-29.5Z"/>
  <g>
    <path class="cls-1" d="M320.94,30.3c-9.72-1.46-18.71-3.98-18.71-12.46,0-10.63,12.72-11.78,18.19-11.78,1.73,0,3.46.11,5.17.32,1.73.21,3.46.52,5.15.93,1.66.39,3.29.88,4.89,1.45,1.77.64,3.5,1.4,5.22,2.36.74.42,1.56.75,2.42.62.69-.1,1.34-.45,1.81-.96.41-.44.68-1,.77-1.59.11-.7-.04-1.39-.4-1.99-.18-.28-.41-.53-.67-.74-.6-.5-1.33-.87-2.02-1.24-.69-.37-1.39-.71-2.1-1.04-1.51-.68-3.06-1.27-4.64-1.77-1.67-.53-3.36-.97-5.07-1.32-1.77-.36-3.55-.64-5.34-.82-1.73-.18-3.47-.27-5.2-.27-15.4,0-25.35,7.04-25.35,17.93,0,13.55,12.96,17.39,25.63,19.36,12.17,1.89,20.14,3.89,20.14,14.09s-12.29,12.07-19.61,12.07c-11.57,0-19.12-3.31-23.39-5.92-.68-.42-1.46-.67-2.26-.52-.69.13-1.33.51-1.79,1.05-.28.33-.49.73-.61,1.15-.38,1.37.27,2.78,1.48,3.49,6.83,4.45,15.93,6.91,25.96,6.91,17.47,0,27.49-6.92,27.49-18.99,0-14.95-14.02-18.33-27.17-20.32Z"/>
    <path class="cls-1" d="M575.92,0h-5.36v1.86c0-.09,1.38.26,1.5.3.48.19.92.45,1.32.78,1.29,1.1,1.78,2.89,1.78,4.54v58.54c0,1.98,1.6,3.58,3.58,3.58s3.58-1.6,3.58-3.58V5.25C582.19,2.16,579.56,0,575.92,0Z"/>
    <path class="cls-1" d="M646.33,63.54h-34.7V5.25C611.52,2.16,608.89,0,605.25,0h-5.36v1.86c0-.09,1.38.26,1.5.3.48.19.92.45,1.32.78,1.29,1.1,1.78,2.89,1.78,4.54v58.67c0,1.91,1.54,3.45,3.45,3.45h38.41c1.67,0,3.03-1.35,3.03-3.03h0c0-1.68-1.35-3.03-3.03-3.03Z"/>
    <path class="cls-1" d="M560.25,0h-46.85v1.86c0-.09,1.38.26,1.5.3.48.19.92.45,1.32.78,1.29,1.1,1.78,2.89,1.78,4.54v58.54c0,1.98,1.6,3.58,3.58,3.58s3.58-1.6,3.58-3.58v-27.38h35.1c1.67,0,3.03-1.35,3.03-3.03h0c0-1.67-1.35-3.03-3.03-3.03h-35.1V6.06h35.1c1.67,0,3.03-1.35,3.03-3.03h0C563.28,1.36,561.92,0,560.25,0Z"/>
    <path class="cls-1" d="M698.49,63.54h-34.7V5.25C663.67,2.16,661.05,0,657.41,0h-5.36v1.86c0-.09,1.38.26,1.5.3.48.19.92.45,1.32.78,1.29,1.1,1.78,2.89,1.78,4.54v58.67c0,1.91,1.54,3.45,3.45,3.45h38.41c1.67,0,3.03-1.35,3.03-3.03h0c0-1.68-1.35-3.03-3.03-3.03Z"/>
    <path class="cls-1" d="M397.15,8.79c-1.66-.59-3.52.13-4.36,1.69-1.08,2-.22,4.29,1.93,5.04,9.93,3.49,16.9,13.28,16.07,24.58-.84,11.51-11.73,21.94-23.27,22.32-13.71.45-24.97-10.53-24.97-24.14,0-11.73,8.37-21.46,19.45-23.65,2.23-.44,4.4-1.52,5.99-3.16,3.68-3.81,2.7-10.57-3.06-11.39-.39-.06-.78-.08-1.18-.08h-5.36s0,1.86,0,1.86c0-.05,1.2.22,1.31.25,1.19.35,2.32,1.23,2.73,2.44.44,1.27-.14,2.71-1.56,2.98-15.22,2.87-26.56,16.73-25.41,33.04,1.06,14.89,14.99,28.39,29.9,29.01,17.91.74,32.66-13.55,32.66-31.29,0-13.63-8.72-25.2-20.87-29.5Z"/>
    <path class="cls-1" d="M467.06,8.79c-1.66-.59-3.52.13-4.36,1.69-1.08,2-.22,4.29,1.93,5.04,9.93,3.49,16.9,13.28,16.07,24.58-.84,11.51-11.73,21.94-23.27,22.32-13.71.45-24.97-10.53-24.97-24.14,0-11.73,8.37-21.46,19.45-23.65,2.23-.44,4.4-1.52,5.99-3.16,3.68-3.81,2.7-10.57-3.06-11.39-.39-.06-.78-.08-1.18-.08h-5.36s0,1.86,0,1.86c0-.05,1.2.22,1.31.25,1.19.35,2.32,1.23,2.73,2.44.44,1.27-.14,2.71-1.56,2.98-15.22,2.87-26.56,16.73-25.41,33.04,1.06,14.89,14.99,28.39,29.9,29.01,17.91.74,32.66-13.55,32.66-31.29,0-13.63-8.72-25.2-20.87-29.5Z"/>
    <path class="cls-1" d="M265.46,18.17c-1.17-2.53-2.68-4.89-4.48-7.02-1.8-2.13-3.88-4.02-6.17-5.6-2.32-1.6-4.85-2.88-7.51-3.8-2.74-.95-5.61-1.51-8.5-1.67-3.59-.2-7.22.26-10.66,1.31-2.71.83-5.31,2.03-7.7,3.55-2.36,1.51-4.52,3.34-6.4,5.42-.06.06-.1.13-.15.19v-5.3C213.77,2.16,211.15,0,207.5,0h-5.36v1.86c0-.09,1.38.26,1.5.3.48.19.93.45,1.31.78,1.29,1.1,1.78,2.89,1.78,4.54v58.55c0,1.97,1.59,3.57,3.56,3.57s3.57-1.6,3.57-3.57V29.01h.03v-1.32c.08-2.81.76-5.6,2.23-8,1.59-2.61,3.66-4.92,6.03-6.84,2.37-1.92,5.06-3.45,7.94-4.45,3.31-1.14,6.9-1.52,10.37-.96,2.98.48,5.85,1.59,8.45,3.12,2.64,1.56,5.02,3.57,7,5.92.85,1.01,1.63,2.09,2.32,3.22,1.56,2.55,2.26,5.54,2.26,8.53v37.82c0,1.97,1.6,3.57,3.57,3.57s3.57-1.6,3.57-3.57V28.52c0-3.56-.65-7.12-2.15-10.35Z"/>
  </g>
</svg>