<?xml version="1.0" encoding="UTF-8"?>
<svg id="_레이어_1" data-name="레이어 1" xmlns="http://www.w3.org/2000/svg" version="1.1" viewBox="0 0 221.64 69.6">
  <defs>
    <style>
      .cls-1 {
        fill: #79868c;
        stroke-width: 0px;
      }
    </style>
  </defs>
  <g>
    <g>
      <path class="cls-1" d="M37.15.05C36.92.02,36.69,0,36.46,0h-3.16v1.1s.71.13.77.15c.7.21,1.37.73,1.61,1.44.22.64-.02,1.23-.51,1.63-.29.23-26.18,21.14-26.2,21.16-.45.37-.74.89-.8,1.47-.06.58.11,1.15.49,1.63.35.43.87.71,1.45.77.58.06,1.15-.11,1.6-.47.09-.07,26.46-21.46,26.76-21.7.15-.12.31-.24.45-.37.84-.74,1.29-1.98,1.32-3.07.02-1.06-.37-2.14-1.18-2.84-.53-.46-1.2-.73-1.9-.83Z"/>
      <path class="cls-1" d="M63.34,25.47s-13.45-10.86-21.05-17c-.88-.71-2.15-.61-2.92.21h0c-.85.92-.77,2.35.21,3.14,7.82,6.35,20.96,17,21.02,17.05.45.37,1.02.53,1.6.47.58-.06,1.1-.35,1.45-.77.39-.48.55-1.05.49-1.63-.06-.58-.35-1.1-.8-1.47Z"/>
    </g>
    <path class="cls-1" d="M70.11,39.06H2.19c-1.21,0-2.19.98-2.19,2.19s.98,2.19,2.19,2.19h33.97v14.07c0,1.21.98,2.19,2.19,2.19s2.19-.98,2.19-2.19v-14.07h29.57c1.21,0,2.19-.98,2.19-2.19s-.98-2.19-2.19-2.19Z"/>
    <path class="cls-1" d="M61.96,65.22H13.37v-13.78c0-1.21-.98-2.19-2.19-2.19s-2.19.98-2.19,2.19v18.16h52.97c1.21,0,2.19-.98,2.19-2.19s-.98-2.19-2.19-2.19Z"/>
  </g>
  <g>
    <g>
      <path class="cls-1" d="M116.92.05C116.69.02,116.46,0,116.22,0h-3.16v1.1s.71.13.77.15c.7.21,1.37.73,1.61,1.44.22.64-.02,1.23-.51,1.63-.29.23-26.18,21.14-26.2,21.16-.45.37-.74.89-.8,1.47-.06.58.11,1.15.49,1.63.35.43.87.71,1.45.77.58.06,1.15-.11,1.6-.47.09-.07,26.46-21.46,26.76-21.7.15-.12.31-.24.45-.37.84-.74,1.29-1.98,1.32-3.07.02-1.06-.37-2.14-1.18-2.84-.53-.46-1.2-.73-1.9-.83Z"/>
      <path class="cls-1" d="M143.1,25.47s-13.45-10.86-21.05-17c-.88-.71-2.15-.61-2.92.21h0c-.85.92-.77,2.35.21,3.14,7.82,6.35,20.96,17,21.02,17.05.45.37,1.02.53,1.6.47.58-.06,1.1-.35,1.45-.77.39-.48.55-1.05.49-1.63-.06-.58-.35-1.1-.8-1.47Z"/>
    </g>
    <path class="cls-1" d="M148.12,39.06h-64.72c-1.21,0-2.19.98-2.19,2.19s.98,2.19,2.19,2.19h31.34v23.97c0,1.21.99,2.19,2.19,2.19s2.19-.98,2.19-2.19v-23.97s29,0,29,0c1.21,0,2.19-.98,2.19-2.19s-.98-2.19-2.19-2.19Z"/>
  </g>
  <g>
    <g>
      <g>
        <path class="cls-1" d="M161.66,8.18h38.48c1.21,0,2.19-.98,2.19-2.19s-.98-2.19-2.19-2.19h-38.48c-1.21,0-2.19.98-2.19,2.19s.98,2.19,2.19,2.19Z"/>
        <path class="cls-1" d="M205.81,29.1h0c-.11-.59-.42-1.09-.88-1.43-.47-.34-1.05-.48-1.63-.38l-8.61,1.42.04-.2,1.14-5.76v-12.29h-4.38l.05,11.85-1.39,6.86h-16.29V10.46h-4.38v18.71h-7.82c-1.21,0-2.19.98-2.19,2.19,0,.58.23,1.13.64,1.55.41.41.96.64,1.55.64h0l30.64-.03,11.7-1.91c1.19-.19,2-1.32,1.8-2.51Z"/>
      </g>
      <path class="cls-1" d="M217.92,35.19c1.21,0,2.19-.98,2.19-2.19V2.19C220.11.98,219.13,0,217.92,0s-2.19.98-2.19,2.19v30.81c0,1.21.98,2.19,2.19,2.19Z"/>
    </g>
    <path class="cls-1" d="M219.45,65.18h-43.63v-8.94h41.99c1.25,0,2.27-1.03,2.27-2.3v-12.59c0-1.27-1.02-2.3-2.27-2.3h-44.1c-1.21,0-2.19.99-2.19,2.21s.98,2.21,2.19,2.21h41.99v8.33h-41.99c-1.25,0-2.27,1.03-2.27,2.29v13.2c0,1.27,1.02,2.3,2.27,2.3h45.74c1.21,0,2.19-.99,2.19-2.21s-.98-2.21-2.19-2.21Z"/>
  </g>
</svg>